<svg width="215" height="215" viewBox="0 0 215 215" fill="none" xmlns="http://www.w3.org/2000/svg">
  <rect width="215" height="215" rx="37" fill="url(#paint0_linear_28_429)"/>
  <g filter="url(#filter0_d_28_429)">
    <path d="M62.133 41.3825L61.254 40L59.7033 40.5191L58.6503 40.8716L57.392 41.2929L57.2336 42.6138L45.015 144.525L45 144.649V144.775V145.476V147.577H47.095H47.6888L61.9074 148.961L62.0084 148.972H62.1099H62.8053H64.9003V146.871V146.29L70.8515 94.0212L104.687 147.299L104.699 147.317L104.711 147.334L105.406 148.382L107.144 151L108.89 148.388L109.59 147.341L109.606 147.316L109.622 147.292L142.974 94.2698L147.656 146.964V147.565V149.667H149.751H150.446H150.533L150.619 149.66L167.297 148.271H167.905H170V146.17V145.476V145.35L169.985 145.226L157.767 42.6155L157.596 41.1801L156.198 40.8271L154.802 40.4746L153.321 40.1006L152.513 41.4004L107.83 113.262L62.133 41.3825Z" fill="white"/>
  </g>
  <path d="M44.2299 172L40.2979 166.753H39.0519V172H37.2859V160.295H39.0519V165.239H39.6292L44.0528 160.295H46.2074L41.5266 165.536L46.3846 172H44.2299ZM50.4381 172.194C49.8818 172.194 49.3789 172.091 48.9293 171.886C48.4797 171.676 48.1235 171.373 47.8606 170.977C47.6015 170.581 47.4719 170.095 47.4719 169.52C47.4719 169.024 47.5672 168.617 47.7577 168.297C47.9482 167.976 48.2054 167.723 48.5292 167.536C48.8531 167.35 49.2151 167.209 49.6151 167.113C50.0152 167.018 50.4229 166.946 50.8382 166.896C51.364 166.835 51.7907 166.786 52.1184 166.748C52.4461 166.706 52.6842 166.639 52.8328 166.548C52.9814 166.456 53.0557 166.308 53.0557 166.102V166.062C53.0557 165.563 52.9147 165.176 52.6328 164.902C52.3546 164.627 51.9393 164.49 51.3869 164.49C50.8115 164.49 50.3581 164.618 50.0266 164.873C49.699 165.125 49.4723 165.405 49.3465 165.713L47.7405 165.347C47.931 164.814 48.2092 164.383 48.575 164.056C48.9445 163.724 49.3694 163.484 49.8495 163.336C50.3295 163.183 50.8344 163.107 51.364 163.107C51.7145 163.107 52.086 163.149 52.4785 163.233C52.8747 163.313 53.2443 163.461 53.5872 163.679C53.9339 163.896 54.2178 164.206 54.4388 164.61C54.6598 165.01 54.7703 165.53 54.7703 166.17V172H53.1014V170.8H53.0328C52.9224 171.021 52.7566 171.238 52.5356 171.451C52.3146 171.665 52.0308 171.842 51.684 171.983C51.3373 172.124 50.922 172.194 50.4381 172.194ZM50.8096 170.823C51.2821 170.823 51.686 170.729 52.0212 170.543C52.3604 170.356 52.6175 170.112 52.7928 169.811C52.9719 169.506 53.0614 169.18 53.0614 168.834V167.702C53.0005 167.763 52.8823 167.82 52.7071 167.874C52.5356 167.923 52.3394 167.967 52.1184 168.005C51.8974 168.039 51.6821 168.072 51.4726 168.102C51.263 168.129 51.0878 168.152 50.9468 168.171C50.6153 168.213 50.3124 168.283 50.0381 168.382C49.7675 168.481 49.5504 168.624 49.3865 168.811C49.2265 168.994 49.1465 169.238 49.1465 169.542C49.1465 169.965 49.3027 170.285 49.6151 170.503C49.9276 170.716 50.3257 170.823 50.8096 170.823ZM57.0464 175.292V163.221H58.7152V164.644H58.8581C58.9572 164.462 59.1 164.25 59.2867 164.01C59.4734 163.77 59.7325 163.56 60.064 163.381C60.3955 163.199 60.8337 163.107 61.3785 163.107C62.0872 163.107 62.7197 163.286 63.276 163.644C63.8323 164.002 64.2685 164.519 64.5848 165.193C64.9048 165.868 65.0649 166.679 65.0649 167.628C65.0649 168.577 64.9067 169.39 64.5905 170.068C64.2742 170.743 63.8399 171.263 63.2874 171.629C62.7349 171.99 62.1044 172.171 61.3957 172.171C60.8622 172.171 60.426 172.082 60.0869 171.903C59.7516 171.724 59.4887 171.514 59.2982 171.274C59.1077 171.034 58.961 170.821 58.8581 170.634H58.7552V175.292H57.0464ZM58.7209 167.611C58.7209 168.228 58.8105 168.769 58.9896 169.234C59.1686 169.699 59.4277 170.063 59.7668 170.325C60.1059 170.585 60.5212 170.714 61.0128 170.714C61.5233 170.714 61.95 170.579 62.293 170.308C62.6359 170.034 62.895 169.662 63.0702 169.194C63.2493 168.725 63.3389 168.197 63.3389 167.611C63.3389 167.032 63.2512 166.511 63.076 166.05C62.9045 165.589 62.6454 165.226 62.2987 164.959C61.9558 164.692 61.5271 164.559 61.0128 164.559C60.5174 164.559 60.0983 164.686 59.7554 164.942C59.4163 165.197 59.1591 165.553 58.9838 166.01C58.8086 166.468 58.7209 167.001 58.7209 167.611ZM65.9221 164.696V163.221H73.3291V164.696H70.4658V172H68.7969V164.696H65.9221ZM77.2826 172.194C76.7263 172.194 76.2234 172.091 75.7738 171.886C75.3242 171.676 74.9679 171.373 74.705 170.977C74.4459 170.581 74.3164 170.095 74.3164 169.52C74.3164 169.024 74.4117 168.617 74.6022 168.297C74.7927 167.976 75.0499 167.723 75.3737 167.536C75.6976 167.35 76.0596 167.209 76.4596 167.113C76.8597 167.018 77.2674 166.946 77.6827 166.896C78.2085 166.835 78.6352 166.786 78.9629 166.748C79.2906 166.706 79.5287 166.639 79.6773 166.548C79.8259 166.456 79.9002 166.308 79.9002 166.102V166.062C79.9002 165.563 79.7592 165.176 79.4773 164.902C79.1991 164.627 78.7838 164.49 78.2313 164.49C77.656 164.49 77.2026 164.618 76.8711 164.873C76.5434 165.125 76.3167 165.405 76.191 165.713L74.585 165.347C74.7755 164.814 75.0537 164.383 75.4194 164.056C75.789 163.724 76.2139 163.484 76.6939 163.336C77.174 163.183 77.6789 163.107 78.2085 163.107C78.559 163.107 78.9305 163.149 79.323 163.233C79.7192 163.313 80.0888 163.461 80.4317 163.679C80.7784 163.896 81.0623 164.206 81.2833 164.61C81.5043 165.01 81.6148 165.53 81.6148 166.17V172H79.9459V170.8H79.8773C79.7668 171.021 79.6011 171.238 79.3801 171.451C79.1591 171.665 78.8753 171.842 78.5285 171.983C78.1818 172.124 77.7665 172.194 77.2826 172.194ZM77.6541 170.823C78.1266 170.823 78.5304 170.729 78.8657 170.543C79.2048 170.356 79.462 170.112 79.6373 169.811C79.8164 169.506 79.9059 169.18 79.9059 168.834V167.702C79.8449 167.763 79.7268 167.82 79.5516 167.874C79.3801 167.923 79.1839 167.967 78.9629 168.005C78.7419 168.039 78.5266 168.072 78.3171 168.102C78.1075 168.129 77.9322 168.152 77.7913 168.171C77.4598 168.213 77.1569 168.283 76.8825 168.382C76.612 168.481 76.3948 168.624 76.231 168.811C76.071 168.994 75.991 169.238 75.991 169.542C75.991 169.965 76.1472 170.285 76.4596 170.503C76.7721 170.716 77.1702 170.823 77.6541 170.823ZM93.0767 169.885L95.9114 163.221H97.386L93.7111 172H92.4423L88.8417 163.221H90.2991L93.0767 169.885ZM89.8247 163.221V172H88.1501V163.221H89.8247ZM96.3744 172V163.221H98.0375V172H96.3744ZM104.099 172.177C103.234 172.177 102.489 171.992 101.864 171.623C101.243 171.249 100.763 170.726 100.424 170.051C100.088 169.373 99.9207 168.578 99.9207 167.668C99.9207 166.769 100.088 165.976 100.424 165.29C100.763 164.604 101.235 164.069 101.841 163.684C102.451 163.299 103.163 163.107 103.979 163.107C104.474 163.107 104.954 163.189 105.419 163.353C105.884 163.517 106.301 163.774 106.67 164.124C107.04 164.475 107.331 164.93 107.545 165.49C107.758 166.047 107.865 166.723 107.865 167.519V168.125H100.887V166.845H106.19C106.19 166.395 106.099 165.997 105.916 165.65C105.733 165.3 105.476 165.024 105.144 164.822C104.817 164.62 104.432 164.519 103.99 164.519C103.51 164.519 103.091 164.637 102.733 164.873C102.378 165.106 102.104 165.41 101.91 165.788C101.719 166.161 101.624 166.567 101.624 167.005V168.005C101.624 168.592 101.727 169.091 101.932 169.502C102.142 169.914 102.433 170.228 102.807 170.445C103.18 170.659 103.617 170.766 104.116 170.766C104.44 170.766 104.735 170.72 105.002 170.628C105.268 170.533 105.499 170.392 105.693 170.205C105.887 170.019 106.036 169.788 106.139 169.514L107.756 169.805C107.627 170.282 107.394 170.699 107.059 171.057C106.728 171.411 106.31 171.688 105.807 171.886C105.308 172.08 104.739 172.177 104.099 172.177ZM115.71 166.873V168.354H110.955V166.873H115.71ZM111.435 163.221V172H109.761V163.221H111.435ZM116.905 163.221V172H115.236V163.221H116.905ZM122.975 172.177C122.11 172.177 121.365 171.992 120.74 171.623C120.119 171.249 119.639 170.726 119.3 170.051C118.964 169.373 118.797 168.578 118.797 167.668C118.797 166.769 118.964 165.976 119.3 165.29C119.639 164.604 120.111 164.069 120.717 163.684C121.327 163.299 122.039 163.107 122.855 163.107C123.35 163.107 123.83 163.189 124.295 163.353C124.76 163.517 125.177 163.774 125.546 164.124C125.916 164.475 126.207 164.93 126.421 165.49C126.634 166.047 126.741 166.723 126.741 167.519V168.125H119.763V166.845H125.066C125.066 166.395 124.975 165.997 124.792 165.65C124.609 165.3 124.352 165.024 124.02 164.822C123.693 164.62 123.308 164.519 122.866 164.519C122.386 164.519 121.967 164.637 121.609 164.873C121.254 165.106 120.98 165.41 120.786 165.788C120.595 166.161 120.5 166.567 120.5 167.005V168.005C120.5 168.592 120.603 169.091 120.808 169.502C121.018 169.914 121.309 170.228 121.683 170.445C122.056 170.659 122.493 170.766 122.992 170.766C123.316 170.766 123.611 170.72 123.878 170.628C124.144 170.533 124.375 170.392 124.569 170.205C124.763 170.019 124.912 169.788 125.015 169.514L126.632 169.805C126.503 170.282 126.27 170.699 125.935 171.057C125.604 171.411 125.186 171.688 124.683 171.886C124.184 172.08 123.615 172.177 122.975 172.177ZM127.78 174.532V170.52H128.494C128.677 170.352 128.831 170.152 128.957 169.92C129.087 169.687 129.195 169.411 129.283 169.091C129.374 168.771 129.45 168.397 129.511 167.971C129.572 167.54 129.626 167.049 129.671 166.496L129.946 163.221H135.912V170.52H137.261V174.532H135.592V172H129.471V174.532H127.78ZM130.323 170.52H134.244V164.684H131.477L131.294 166.496C131.207 167.418 131.096 168.218 130.963 168.897C130.83 169.571 130.616 170.112 130.323 170.52ZM138.371 172L141.772 167.508L138.411 163.221H140.4L143.115 166.868H143.727V163.221H145.435V166.868H146.03L148.745 163.221H150.733L147.39 167.508L150.773 172H148.745L146.007 168.342H145.435V172H143.727V168.342H143.155L140.4 172H138.371ZM155.949 172.177C155.084 172.177 154.339 171.992 153.714 171.623C153.093 171.249 152.613 170.726 152.274 170.051C151.938 169.373 151.771 168.578 151.771 167.668C151.771 166.769 151.938 165.976 152.274 165.29C152.613 164.604 153.085 164.069 153.691 163.684C154.301 163.299 155.013 163.107 155.829 163.107C156.324 163.107 156.804 163.189 157.269 163.353C157.734 163.517 158.151 163.774 158.52 164.124C158.89 164.475 159.182 164.93 159.395 165.49C159.608 166.047 159.715 166.723 159.715 167.519V168.125H152.737V166.845H158.04C158.04 166.395 157.949 165.997 157.766 165.65C157.583 165.3 157.326 165.024 156.995 164.822C156.667 164.62 156.282 164.519 155.84 164.519C155.36 164.519 154.941 164.637 154.583 164.873C154.228 165.106 153.954 165.41 153.76 165.788C153.569 166.161 153.474 166.567 153.474 167.005V168.005C153.474 168.592 153.577 169.091 153.783 169.502C153.992 169.914 154.284 170.228 154.657 170.445C155.03 170.659 155.467 170.766 155.966 170.766C156.29 170.766 156.585 170.72 156.852 170.628C157.118 170.533 157.349 170.392 157.543 170.205C157.737 170.019 157.886 169.788 157.989 169.514L159.606 169.805C159.477 170.282 159.244 170.699 158.909 171.057C158.578 171.411 158.16 171.688 157.657 171.886C157.158 172.08 156.589 172.177 155.949 172.177ZM161.611 175.292V163.221H163.28V164.644H163.423C163.522 164.462 163.665 164.25 163.851 164.01C164.038 163.77 164.297 163.56 164.629 163.381C164.96 163.199 165.398 163.107 165.943 163.107C166.652 163.107 167.284 163.286 167.841 163.644C168.397 164.002 168.833 164.519 169.149 165.193C169.469 165.868 169.629 166.679 169.629 167.628C169.629 168.577 169.471 169.39 169.155 170.068C168.839 170.743 168.405 171.263 167.852 171.629C167.3 171.99 166.669 172.171 165.96 172.171C165.427 172.171 164.991 172.082 164.651 171.903C164.316 171.724 164.053 171.514 163.863 171.274C163.672 171.034 163.526 170.821 163.423 170.634H163.32V175.292H161.611ZM163.286 167.611C163.286 168.228 163.375 168.769 163.554 169.234C163.733 169.699 163.992 170.063 164.331 170.325C164.671 170.585 165.086 170.714 165.577 170.714C166.088 170.714 166.515 170.579 166.858 170.308C167.2 170.034 167.46 169.662 167.635 169.194C167.814 168.725 167.903 168.197 167.903 167.611C167.903 167.032 167.816 166.511 167.641 166.05C167.469 165.589 167.21 165.226 166.863 164.959C166.52 164.692 166.092 164.559 165.577 164.559C165.082 164.559 164.663 164.686 164.32 164.942C163.981 165.197 163.724 165.553 163.548 166.01C163.373 166.468 163.286 167.001 163.286 167.611ZM174.099 172.194C173.543 172.194 173.04 172.091 172.59 171.886C172.14 171.676 171.784 171.373 171.521 170.977C171.262 170.581 171.133 170.095 171.133 169.52C171.133 169.024 171.228 168.617 171.418 168.297C171.609 167.976 171.866 167.723 172.19 167.536C172.514 167.35 172.876 167.209 173.276 167.113C173.676 167.018 174.084 166.946 174.499 166.896C175.025 166.835 175.451 166.786 175.779 166.748C176.107 166.706 176.345 166.639 176.493 166.548C176.642 166.456 176.716 166.308 176.716 166.102V166.062C176.716 165.563 176.575 165.176 176.293 164.902C176.015 164.627 175.6 164.49 175.048 164.49C174.472 164.49 174.019 164.618 173.687 164.873C173.36 165.125 173.133 165.405 173.007 165.713L171.401 165.347C171.592 164.814 171.87 164.383 172.236 164.056C172.605 163.724 173.03 163.484 173.51 163.336C173.99 163.183 174.495 163.107 175.025 163.107C175.375 163.107 175.747 163.149 176.139 163.233C176.535 163.313 176.905 163.461 177.248 163.679C177.595 163.896 177.878 164.206 178.099 164.61C178.32 165.01 178.431 165.53 178.431 166.17V172H176.762V170.8H176.694C176.583 171.021 176.417 171.238 176.196 171.451C175.975 171.665 175.691 171.842 175.345 171.983C174.998 172.124 174.583 172.194 174.099 172.194ZM174.47 170.823C174.943 170.823 175.347 170.729 175.682 170.543C176.021 170.356 176.278 170.112 176.453 169.811C176.633 169.506 176.722 169.18 176.722 168.834V167.702C176.661 167.763 176.543 167.82 176.368 167.874C176.196 167.923 176 167.967 175.779 168.005C175.558 168.039 175.343 168.072 175.133 168.102C174.924 168.129 174.748 168.152 174.607 168.171C174.276 168.213 173.973 168.283 173.699 168.382C173.428 168.481 173.211 168.624 173.047 168.811C172.887 168.994 172.807 169.238 172.807 169.542C172.807 169.965 172.963 170.285 173.276 170.503C173.588 170.716 173.986 170.823 174.47 170.823Z" fill="white" fill-opacity="0.6"/>
  <defs>
    <filter id="filter0_d_28_429" x="36" y="35" width="143" height="129" filterUnits="userSpaceOnUse" color-interpolation-filters="sRGB">
      <feFlood flood-opacity="0" result="BackgroundImageFix"/>
      <feColorMatrix in="SourceAlpha" type="matrix" values="0 0 0 0 0 0 0 0 0 0 0 0 0 0 0 0 0 0 127 0" result="hardAlpha"/>
      <feOffset dy="4"/>
      <feGaussianBlur stdDeviation="4.5"/>
      <feComposite in2="hardAlpha" operator="out"/>
      <feColorMatrix type="matrix" values="0 0 0 0 0 0 0 0 0 0 0 0 0 0 0 0 0 0 0.25 0"/>
      <feBlend mode="normal" in2="BackgroundImageFix" result="effect1_dropShadow_28_429"/>
      <feBlend mode="normal" in="SourceGraphic" in2="effect1_dropShadow_28_429" result="shape"/>
    </filter>
    <linearGradient id="paint0_linear_28_429" x1="4.18056" y1="5.54124" x2="254.589" y2="77.7907" gradientUnits="userSpaceOnUse">
      <stop stop-color="#EB2A36"/>
      <stop offset="1" stop-color="#FF1D53"/>
    </linearGradient>
  </defs>
</svg>
